<svg width="40" height="40" viewBox="0 0 40 40" fill="none" xmlns="http://www.w3.org/2000/svg">
<path d="M24.3332 32.3333C22.9999 31 22.9999 29 24.3332 27.6667C25.6666 26.3333 27.6666 26.3333 28.9999 27.6667L30.3332 25.1667C30.4999 24.8333 30.8332 24.5 30.9999 24.3333C29.3332 21.6667 26.3332 20 23.3332 20H16.6666C12.4999 20 8.83323 23 7.66656 27.1667L6.83323 30.3333C6.33323 31.8333 6.66656 33.5 7.66656 34.8333C8.66656 36 9.9999 36.6667 11.6666 36.6667H28.3332H29.1666C28.4999 36.5 27.9999 36.1667 27.4999 35.8333L24.3332 32.3333Z" fill="#11A371"/>
<path d="M20 18.3333C24.1421 18.3333 27.5 15.05 27.5 11C27.5 6.94987 24.1421 3.66663 20 3.66663C15.8579 3.66663 12.5 6.94987 12.5 11C12.5 15.05 15.8579 18.3333 20 18.3333Z" fill="#11A371"/>
<path d="M34 25.1667C33.1667 24.8333 32.1667 25.1667 31.8333 25.8333L29.5 30.5L27.8333 28.8333C27.1667 28.1667 26.1667 28.1667 25.5 28.8333C24.8333 29.5 24.8333 30.5 25.5 31.1667L28.8333 34.5C29.1667 34.8333 29.5 35 30 35H30.3333C30.8333 34.8333 31.3333 34.5 31.5 34.1667L34.8333 27.5C35.1667 26.6667 34.8333 25.6667 34 25.1667Z" fill="#11A371"/>
</svg>
